<svg width="23" height="19" viewBox="0 0 23 19" fill="none" xmlns="http://www.w3.org/2000/svg">
<path d="M22.5508 6.28385C22.7305 6.13542 23 6.28385 23 6.53125V16.625C23 17.9609 22.0117 19 20.8438 19H2.15625C0.943359 19 0 17.9609 0 16.625V6.53125C0 6.28385 0.224609 6.13542 0.404297 6.28385C1.4375 7.17448 2.74023 8.26302 7.32227 11.9245C8.26562 12.6667 9.88281 14.2995 11.5 14.2995C13.0723 14.2995 14.7344 12.6667 15.6328 11.9245C20.2148 8.26302 21.5176 7.17448 22.5508 6.28385ZM11.5 12.6667C10.4219 12.7161 8.93945 11.2318 8.17578 10.638C2.20117 5.88802 1.75195 5.44271 0.404297 4.25521C0.134766 4.05729 0 3.71094 0 3.3151V2.375C0 1.08854 0.943359 0 2.15625 0H20.8438C22.0117 0 23 1.08854 23 2.375V3.3151C23 3.71094 22.8203 4.05729 22.5508 4.25521C21.2031 5.44271 20.7539 5.88802 14.7793 10.638C14.0156 11.2318 12.5332 12.7161 11.5 12.6667Z" fill="white"/>
</svg>
