<svg width="81" height="81" viewBox="0 0 81 81" fill="none" xmlns="http://www.w3.org/2000/svg">
<rect width="81" height="81" fill="black"/>
<path d="M51.9772 65C50.0847 65 48.4933 64.6989 47.203 64.0968C45.9127 63.4946 44.9234 62.4194 44.2353 60.871C43.5471 59.3226 43.203 57.1935 43.203 54.4839V47H50.6869V55.1935C50.6869 56.0968 50.7729 56.7419 50.9449 57.129C51.117 57.5161 51.4826 57.7097 52.0417 57.7097C52.6009 57.7097 52.9664 57.5376 53.1385 57.1935C53.3105 56.8495 53.3966 56.2688 53.3966 55.4516C53.3966 55.3656 53.3966 55.2796 53.3966 55.1935V48.8064V48.6774C53.3535 47.6882 53.1385 46.7419 52.7514 45.8387C52.4073 44.9355 51.8267 44.1398 51.0095 43.4516L48.1707 41C47.9987 40.7849 47.8267 40.6129 47.6546 40.4839C47.4826 40.3118 47.3105 40.1398 47.1385 39.9677C46.1922 39.0645 45.5041 38.1828 45.074 37.3226C44.5148 36.3763 44.0847 35.3226 43.7836 34.1613C43.4826 33 43.3105 31.6237 43.2675 30.0323C43.2675 29.6021 43.2675 29.1935 43.2675 28.8065V25.1935C43.2675 22.5269 43.5901 20.4624 44.2353 19C44.9234 17.4946 45.8912 16.4624 47.1385 15.9032C48.4288 15.3011 50.0417 15 51.9772 15C53.9557 15 55.5686 15.3011 56.8159 15.9032C58.0632 16.4624 59.031 17.4946 59.7191 19C60.4503 20.5054 60.8159 22.5914 60.8159 25.2581V32.8065H53.3966V25.0645C53.3966 25.0215 53.3966 25 53.3966 25C53.3966 24.957 53.3966 24.914 53.3966 24.871C53.3966 24.0108 53.3105 23.3441 53.1385 22.871C52.9664 22.3979 52.6009 22.1613 52.0417 22.1613C51.4396 22.1613 51.0525 22.3979 50.8804 22.871C50.7514 23.3441 50.6869 24.0538 50.6869 25C50.6869 25 50.6869 25.0215 50.6869 25.0645V31.129C50.6869 31.172 50.6869 31.2366 50.6869 31.3226C50.7299 31.8387 50.8159 32.2903 50.9449 32.6774C51.074 33.0645 51.2675 33.4516 51.5256 33.8387C51.8267 34.2688 52.1923 34.7419 52.6224 35.2581C53.0955 35.7312 53.5901 36.2043 54.1062 36.6774L55.1385 37.7097L58.4288 40.6774C59.4181 41.5806 60.0417 42.6129 60.2998 43.7742C60.6009 44.8925 60.7729 46.6774 60.8159 49.129V49.8387V54.4839C60.8159 57.1505 60.4933 59.2581 59.8482 60.8065C59.246 62.3118 58.2998 63.3871 57.0095 64.0323C55.7191 64.6774 54.0417 65 51.9772 65Z" fill="white"/>
<path d="M28.9744 15.5161H37.0389L43.297 64.5484H35.684L35.1034 56.6774H31.0389L30.3937 64.5484H22.8453L28.9744 15.5161ZM34.6518 49.7742L33.1679 26.4839H32.9744L31.426 49.7742H34.6518Z" fill="white"/>
</svg>
