<svg width="23" height="23" viewBox="0 0 23 23" fill="none" xmlns="http://www.w3.org/2000/svg">
<path d="M7.65121 18.5211C7.65121 18.6161 7.55847 18.6635 7.41935 18.6635C7.28024 18.711 7.1875 18.6161 7.1875 18.5211C7.1875 18.4261 7.28024 18.3311 7.41935 18.3311C7.55847 18.3311 7.65121 18.4261 7.65121 18.5211ZM6.21371 18.2836C6.26008 18.1886 6.39919 18.1412 6.53831 18.1886C6.67742 18.2361 6.72379 18.3311 6.72379 18.4261C6.67742 18.5211 6.53831 18.5686 6.44556 18.5211C6.30645 18.5211 6.21371 18.3786 6.21371 18.2836ZM8.3004 18.2361C8.39314 18.1886 8.53226 18.2836 8.53226 18.3786C8.57863 18.4736 8.48589 18.5211 8.34677 18.5686C8.20766 18.6161 8.06855 18.5686 8.06855 18.4736C8.06855 18.3311 8.16129 18.2361 8.3004 18.2361ZM11.3145 0C17.7601 0 23 5.03393 23 11.5875C23 16.8589 19.8468 21.3705 15.2097 22.9376C14.6069 23.0801 14.375 22.7002 14.375 22.3678C14.375 21.9878 14.4214 19.9933 14.4214 18.4261C14.4214 17.2863 14.0504 16.574 13.6331 16.1941C16.2298 15.9091 18.9657 15.5292 18.9657 10.9702C18.9657 9.64046 18.502 9.02309 17.7601 8.16827C17.8528 7.83584 18.2702 6.6011 17.621 4.93895C16.6472 4.60652 14.4214 6.22118 14.4214 6.22118C13.494 5.93624 12.5202 5.84126 11.5 5.84126C10.5262 5.84126 9.55242 5.93624 8.625 6.22118C8.625 6.22118 6.35282 4.65401 5.4254 4.93895C4.77621 6.6011 5.14718 7.83584 5.28629 8.16827C4.54435 9.02309 4.17339 9.64046 4.17339 10.9702C4.17339 15.5292 6.81653 15.9091 9.41331 16.1941C9.04234 16.5265 8.76411 17.0489 8.67137 17.8087C7.97581 18.1412 6.30645 18.6635 5.28629 16.8114C4.6371 15.6717 3.47782 15.5767 3.47782 15.5767C2.36492 15.5767 3.43145 16.3365 3.43145 16.3365C4.17339 16.669 4.68347 18.0462 4.68347 18.0462C5.37903 20.1832 8.625 19.4709 8.625 19.4709C8.625 20.4682 8.625 22.0828 8.625 22.4152C8.625 22.7002 8.43952 23.0801 7.83669 22.9851C3.1996 21.3705 0 16.8589 0 11.5875C0 5.03393 4.91532 0 11.3145 0ZM4.49798 16.384C4.54435 16.3365 4.6371 16.384 4.72984 16.4315C4.82258 16.5265 4.82258 16.669 4.77621 16.7165C4.68347 16.7639 4.59073 16.7165 4.49798 16.669C4.45161 16.574 4.40524 16.4315 4.49798 16.384ZM3.9879 16.0041C4.03427 15.9566 4.08064 15.9566 4.17339 16.0041C4.26613 16.0516 4.3125 16.0991 4.3125 16.1466C4.26613 16.2416 4.17339 16.2416 4.08064 16.1941C3.9879 16.1466 3.94153 16.0991 3.9879 16.0041ZM5.47177 17.7137C5.56452 17.6188 5.70363 17.6663 5.79637 17.7612C5.88911 17.8562 5.88911 17.9987 5.84274 18.0462C5.79637 18.1412 5.65726 18.0937 5.56452 17.9987C5.4254 17.9037 5.4254 17.7612 5.47177 17.7137ZM4.96169 17.0014C5.05444 16.9539 5.14718 17.0014 5.23992 17.0964C5.28629 17.1914 5.28629 17.3338 5.23992 17.3813C5.14718 17.4288 5.05444 17.3813 4.96169 17.2863C4.86895 17.1914 4.86895 17.0489 4.96169 17.0014Z" fill="white"/>
</svg>
